<svg xmlns="http://www.w3.org/2000/svg" width="211.41" height="53.9" viewBox="0 0 211.41 53.9"><title>taeye_logo_1</title><g id="Layer_2" data-name="Layer 2"><g id="Layer_1-2" data-name="Layer 1"><path d="M42.55,26A13.72,13.72,0,0,1,15.27,28.8a13.86,13.86,0,0,1,11.8-15.57,11.11,11.11,0,0,1,1.16-.07l.16.15c.59,2.24.89,4.54,2.27,6.54A13.09,13.09,0,0,0,40.9,25.66C41.47,25.71,42.07,25.6,42.55,26Z" fill="#132426"/><path d="M28.23,13.16a2.13,2.13,0,0,0,.26-1.26,12.19,12.19,0,0,1,3.3-7.7A12,12,0,0,1,39.3.14a12.47,12.47,0,0,1,10.28,3,12.59,12.59,0,0,1,4.11,6.53,12.9,12.9,0,0,1-11,16.19c-.5-.3-.44-.83-.52-1.29a13.14,13.14,0,0,0-12.65-11,1.89,1.89,0,0,1-1.24-.32Z" fill="#3fc2d3"/><path d="M10.82,38A6.93,6.93,0,0,1,18,45a7.32,7.32,0,0,1-7.07,7.19A7.44,7.44,0,0,1,3.66,45C3.74,41.19,6.89,37.73,10.82,38Z" fill="#3ec2d2"/><path d="M25.44,53.44A38.67,38.67,0,0,1,30.09,53,25.14,25.14,0,0,0,52.26,33.28a26.66,26.66,0,0,0,.5-6.23,2.85,2.85,0,0,1,.5-1.93A2.66,2.66,0,0,1,58,26.62a22.1,22.1,0,0,1-.66,5.19,27.92,27.92,0,0,1-7.55,13.88,27.51,27.51,0,0,1-13.57,7.55,27.88,27.88,0,0,1-8.25.58C27.15,53.76,26.29,53.57,25.44,53.44Z" fill="#132426"/><path d="M25.43.71C16.13,3,9.64,8.17,6.23,17a24.11,24.11,0,0,0-.91,13.89A3.57,3.57,0,0,1,5.5,33,2.59,2.59,0,0,1,3.06,34.9,2.46,2.46,0,0,1,.43,33.05,13.13,13.13,0,0,1,0,29.16C-.22,16.49,7.34,5.53,19.13,1.62A12.67,12.67,0,0,1,25.43.71Z" fill="#132426"/><path d="M28.23,13.24a12.55,12.55,0,0,1,11,4.39,12.84,12.84,0,0,1,3.45,8.19.36.36,0,0,1-.09.22A15.48,15.48,0,0,1,36.22,25a12.49,12.49,0,0,1-5.14-3.88A12.34,12.34,0,0,1,28.23,13.24Z" fill="#058d9e"/><path d="M73,45.38V13.17a1.44,1.44,0,0,0-1.44-1.45H63.64a1.44,1.44,0,0,1-1.44-1.44V8.47A1.44,1.44,0,0,1,63.64,7h23a1.43,1.43,0,0,1,1.44,1.44v1.81a1.43,1.43,0,0,1-1.44,1.44H78.71a1.44,1.44,0,0,0-1.44,1.45V45.38a1.44,1.44,0,0,1-1.44,1.44H74.39A1.44,1.44,0,0,1,73,45.38Z" stroke="#000" stroke-miterlimit="10" stroke-width="0.5"/><path d="M87.62,45.47,99.54,7.75a1,1,0,0,1,1-.72h3.11a1,1,0,0,1,1,.71l12.66,37.71a1,1,0,0,1-1,1.37h-2.74a1,1,0,0,1-1-.72l-3.33-10.6a1,1,0,0,0-1-.73H96.07a1,1,0,0,0-1,.75L92,46.08a1,1,0,0,1-1,.74H88.61A1,1,0,0,1,87.62,45.47ZM98,30.48h8.3a1,1,0,0,0,1-1.34l-3-9.68q-1.56-5.07-2.3-8.25a58.53,58.53,0,0,1-1.79,7.6L97,29.13A1,1,0,0,0,98,30.48Z" stroke="#000" stroke-miterlimit="10" stroke-width="0.5"/><path d="M122.92,45.5V8.35A1.32,1.32,0,0,1,124.25,7h20.93a1.32,1.32,0,0,1,1.33,1.32V10.4a1.32,1.32,0,0,1-1.33,1.32H128.56a1.33,1.33,0,0,0-1.32,1.33v9.51a1.33,1.33,0,0,0,1.32,1.33H144a1.33,1.33,0,0,1,1.33,1.32v2.05A1.33,1.33,0,0,1,144,28.58h-15.4a1.32,1.32,0,0,0-1.32,1.33V40.8a1.33,1.33,0,0,0,1.32,1.33h17.38a1.32,1.32,0,0,1,1.33,1.32v2a1.32,1.32,0,0,1-1.33,1.32H124.25A1.32,1.32,0,0,1,122.92,45.5Z" fill="#00adc6"/><path d="M164.08,45V30.42a1.75,1.75,0,0,0-.22-.86L153,9.68A1.79,1.79,0,0,1,154.54,7h1.18a1.79,1.79,0,0,1,1.58,1L163.2,19c.63,1.17,1.21,2.32,1.77,3.43a1.77,1.77,0,0,0,3.18,0c.59-1.18,1.24-2.41,1.95-3.72L175.93,8A1.79,1.79,0,0,1,177.51,7h.84a1.79,1.79,0,0,1,1.56,2.67L168.63,29.55a1.84,1.84,0,0,0-.23.89V45a1.79,1.79,0,0,1-1.79,1.79h-.73A1.8,1.8,0,0,1,164.08,45Z" fill="#00adc6"/><path d="M187.06,45.17V8.68A1.65,1.65,0,0,1,188.72,7H209a1.65,1.65,0,0,1,1.66,1.65v1.39A1.65,1.65,0,0,1,209,11.72H193a1.66,1.66,0,0,0-1.65,1.66v8.85A1.66,1.66,0,0,0,193,23.89h14.74a1.65,1.65,0,0,1,1.66,1.65v1.39a1.65,1.65,0,0,1-1.66,1.65H193a1.65,1.65,0,0,0-1.65,1.66V40.47A1.65,1.65,0,0,0,193,42.13h16.72a1.65,1.65,0,0,1,1.66,1.65v1.39a1.65,1.65,0,0,1-1.66,1.65h-21A1.65,1.65,0,0,1,187.06,45.17Z" fill="#00adc6"/></g></g></svg>