<svg xmlns="http://www.w3.org/2000/svg" width="211.49" height="53.76" viewBox="0 0 211.49 53.76"><title>ta_logo_white</title><g id="Layer_2" data-name="Layer 2"><g id="Layer_1-2" data-name="Layer 1"><path d="M73.11,45.33V13.13a1.43,1.43,0,0,0-1.44-1.44H63.81a1.44,1.44,0,0,1-1.44-1.44V8.44A1.43,1.43,0,0,1,63.81,7h23a1.43,1.43,0,0,1,1.44,1.44v1.81a1.44,1.44,0,0,1-1.44,1.44H78.87a1.43,1.43,0,0,0-1.44,1.44v32.2A1.45,1.45,0,0,1,76,46.77H74.55A1.45,1.45,0,0,1,73.11,45.33Z" fill="#fff" stroke="#fff" stroke-miterlimit="10" stroke-width="0.5"/><path d="M87.77,45.42,99.69,7.72a1,1,0,0,1,1-.72h3.1a1,1,0,0,1,1,.7l12.66,37.7a1,1,0,0,1-1,1.37h-2.73a1.05,1.05,0,0,1-1-.73l-3.33-10.59a1.05,1.05,0,0,0-1-.73H96.21a1,1,0,0,0-1,.75L92.11,46a1.05,1.05,0,0,1-1,.75H88.76A1,1,0,0,1,87.77,45.42Zm10.34-15h8.29a1,1,0,0,0,1-1.35l-3-9.67q-1.58-5.07-2.31-8.25a59.77,59.77,0,0,1-1.78,7.6L97.12,29.09A1,1,0,0,0,98.11,30.44Z" fill="#fff" stroke="#fff" stroke-miterlimit="10" stroke-width="0.5"/><path d="M123.05,45.44V8.32A1.33,1.33,0,0,1,124.38,7h20.93a1.32,1.32,0,0,1,1.32,1.32v2a1.32,1.32,0,0,1-1.32,1.32H128.69A1.32,1.32,0,0,0,127.37,13v9.51a1.32,1.32,0,0,0,1.32,1.32h15.39a1.33,1.33,0,0,1,1.33,1.33v2a1.33,1.33,0,0,1-1.33,1.33H128.69a1.32,1.32,0,0,0-1.32,1.32V40.75a1.32,1.32,0,0,0,1.32,1.32h17.38a1.33,1.33,0,0,1,1.32,1.33v2a1.33,1.33,0,0,1-1.32,1.33H124.38A1.34,1.34,0,0,1,123.05,45.44Z" fill="#00aec7"/><path d="M164.19,45V30.38a1.72,1.72,0,0,0-.22-.86L153.09,9.65A1.79,1.79,0,0,1,154.66,7h1.17a1.79,1.79,0,0,1,1.58.94L163.31,19c.63,1.17,1.21,2.31,1.77,3.43a1.77,1.77,0,0,0,3.18,0q.88-1.77,2-3.72L176,7.93A1.78,1.78,0,0,1,177.61,7h.84A1.79,1.79,0,0,1,180,9.67L168.74,29.51a1.81,1.81,0,0,0-.23.88V45a1.79,1.79,0,0,1-1.79,1.79H166A1.79,1.79,0,0,1,164.19,45Z" fill="#00aec7"/><path d="M187.16,45.11V8.65A1.65,1.65,0,0,1,188.81,7h20.27a1.65,1.65,0,0,1,1.65,1.65V10a1.65,1.65,0,0,1-1.65,1.66h-16a1.65,1.65,0,0,0-1.66,1.65v8.85a1.65,1.65,0,0,0,1.66,1.65h14.73a1.65,1.65,0,0,1,1.65,1.66v1.38a1.65,1.65,0,0,1-1.65,1.66H193.13a1.65,1.65,0,0,0-1.66,1.65V40.42a1.65,1.65,0,0,0,1.66,1.65h16.71a1.65,1.65,0,0,1,1.65,1.66v1.38a1.65,1.65,0,0,1-1.65,1.66h-21A1.65,1.65,0,0,1,187.16,45.11Z" fill="#00aec7"/><path d="M42.45,26a13.68,13.68,0,0,1-27.21,2.75A13.81,13.81,0,0,1,27,13.2c.38-.06.77,0,1.16-.08l.16.16c.58,2.23.88,4.52,2.26,6.51A13,13,0,0,0,40.79,25.6,2.5,2.5,0,0,1,42.45,26Z" fill="#fff"/><path d="M28.16,13.12a2.18,2.18,0,0,0,.26-1.25,12.07,12.07,0,0,1,3.29-7.68A12,12,0,0,1,39.2.14a12.4,12.4,0,0,1,10.25,3,12.51,12.51,0,0,1,4.11,6.5,12.88,12.88,0,0,1-11,16.16c-.5-.3-.43-.84-.52-1.29-1.12-6.24-6.49-11-12.61-10.94a1.87,1.87,0,0,1-1.24-.32Z" fill="#00c2d4"/><path d="M10.79,37.9a6.91,6.91,0,0,1,7.14,7A7.3,7.3,0,0,1,10.87,52a7.41,7.41,0,0,1-7.22-7.16C3.73,41.08,6.87,37.63,10.79,37.9Z" fill="#00c2d3"/><path d="M25.37,53.3A43,43,0,0,1,30,52.86,25.07,25.07,0,0,0,52.13,33.19a27,27,0,0,0,.5-6.21,2.81,2.81,0,0,1,.5-1.93,2.65,2.65,0,0,1,4.76,1.5,21.57,21.57,0,0,1-.66,5.18A27.76,27.76,0,0,1,49.7,45.57,27.47,27.47,0,0,1,36.17,53.1a28.12,28.12,0,0,1-8.23.59C27.08,53.63,26.23,53.44,25.37,53.3Z" fill="#fff"/><path d="M25.37.7C16.09,2.94,9.61,8.15,6.22,16.91a24,24,0,0,0-.91,13.85,3.5,3.5,0,0,1,.17,2.13,2.57,2.57,0,0,1-2.43,1.92A2.45,2.45,0,0,1,.43,33,13.13,13.13,0,0,1,0,29.08C-.22,16.44,7.32,5.51,19.08,1.62A12.75,12.75,0,0,1,25.37.7Z" fill="#fff"/><path d="M28.16,13.21a12.49,12.49,0,0,1,10.93,4.38,12.78,12.78,0,0,1,3.44,8.17.39.39,0,0,1-.08.21,15.31,15.31,0,0,1-6.33-1.07A12.62,12.62,0,0,1,31,21,12.35,12.35,0,0,1,28.16,13.21Z" fill="#a0dee0"/></g></g></svg>