<svg width="304" height="54" viewBox="0 0 304 54" fill="none" xmlns="http://www.w3.org/2000/svg">
<path d="M282.617 46.0193C281.459 46.0193 280.881 45.4593 280.881 44.3393V8.49934C280.881 7.37934 281.459 6.81934 282.617 6.81934H302.105C302.851 6.81934 303.225 7.37934 303.225 8.49934V9.39534C303.225 10.5153 302.851 11.0753 302.105 11.0753H285.921V23.8433H300.425C301.171 23.8433 301.545 24.4033 301.545 25.5233V26.4193C301.545 27.5393 301.171 28.0993 300.425 28.0993H285.921V41.7633H302.161C302.907 41.7633 303.281 42.3233 303.281 43.4433V44.3393C303.281 45.4593 302.907 46.0193 302.161 46.0193H282.617Z" fill="#00ADC6"/>
<path d="M259.568 46.1313C258.746 46.1313 258.149 46.0193 257.776 45.7953C257.44 45.5713 257.272 45.2727 257.272 44.8993V26.4753L245.624 8.66733C245.474 8.48067 245.362 8.31267 245.288 8.16333C245.213 7.97667 245.176 7.80867 245.176 7.65933C245.176 7.36067 245.362 7.13667 245.736 6.98734C246.109 6.80067 246.762 6.70734 247.696 6.70734H248.312C248.909 6.70734 249.394 6.76334 249.768 6.87533C250.178 6.98734 250.496 7.21134 250.72 7.54734L260.968 23.5073H258.896L269.256 7.49134C269.442 7.19267 269.76 6.98734 270.208 6.87533C270.693 6.76334 271.216 6.70734 271.776 6.70734H272.224C273.045 6.70734 273.624 6.80067 273.96 6.98734C274.296 7.13667 274.464 7.36067 274.464 7.65933C274.464 7.80867 274.426 7.97667 274.352 8.16333C274.277 8.31267 274.165 8.48067 274.016 8.66733L262.312 26.6433V44.8993C262.312 45.2727 262.144 45.5713 261.808 45.7953C261.472 46.0193 260.874 46.1313 260.016 46.1313H259.568Z" fill="#00ADC6"/>
<path d="M220.765 46.0193C219.608 46.0193 219.029 45.4593 219.029 44.3393V8.49934C219.029 7.37934 219.608 6.81934 220.765 6.81934H240.253C241 6.81934 241.373 7.37934 241.373 8.49934V9.39534C241.373 10.5153 241 11.0753 240.253 11.0753H224.069V23.8433H238.573C239.32 23.8433 239.693 24.4033 239.693 25.5233V26.4193C239.693 27.5393 239.32 28.0993 238.573 28.0993H224.069V41.7633H240.309C241.056 41.7633 241.429 42.3233 241.429 43.4433V44.3393C241.429 45.4593 241.056 46.0193 240.309 46.0193H220.765Z" fill="#00ADC6"/>
<path d="M181.075 46.1313C180.254 46.1313 179.657 46.0193 179.283 45.7953C178.947 45.5713 178.779 45.2727 178.779 44.8993V7.93934C178.779 7.52867 178.947 7.23 179.283 7.04334C179.657 6.81934 180.254 6.70734 181.075 6.70734H182.475C182.886 6.70734 183.222 6.74467 183.483 6.81933C183.782 6.894 184.043 7.006 184.267 7.15534C184.491 7.30467 184.678 7.51 184.827 7.77134L201.963 34.3153C202.337 34.8753 202.673 35.4353 202.971 35.9953C203.27 36.518 203.55 37.078 203.811 37.6753L204.035 37.6193C203.998 36.9847 203.961 36.406 203.923 35.8833C203.923 35.3233 203.923 34.6327 203.923 33.8113V7.93934C203.923 7.52867 204.091 7.23 204.427 7.04334C204.801 6.81934 205.398 6.70734 206.219 6.70734H206.667C207.526 6.70734 208.123 6.81934 208.459 7.04334C208.795 7.23 208.963 7.52867 208.963 7.93934V44.8993C208.963 45.2727 208.795 45.5713 208.459 45.7953C208.123 46.0193 207.526 46.1313 206.667 46.1313H205.323C204.987 46.1313 204.689 46.094 204.427 46.0193C204.166 45.982 203.942 45.9073 203.755 45.7953C203.606 45.646 203.475 45.4967 203.363 45.3473L185.779 18.1313C185.406 17.5713 185.07 17.03 184.771 16.5073C184.51 15.9473 184.23 15.3687 183.931 14.7713L183.707 14.8273C183.782 15.462 183.819 16.0593 183.819 16.6193C183.819 17.142 183.819 17.814 183.819 18.6353V44.8993C183.819 45.2727 183.651 45.5713 183.315 45.7953C182.979 46.0193 182.382 46.1313 181.523 46.1313H181.075Z" fill="white"/>
<path d="M142.083 46.1313C141.262 46.1313 140.646 46.0567 140.235 45.9073C139.862 45.7207 139.675 45.478 139.675 45.1793C139.675 45.0673 139.694 44.9553 139.731 44.8433C139.769 44.694 139.806 44.5447 139.843 44.3953L153.115 7.60334C153.227 7.30467 153.47 7.08067 153.843 6.93134C154.217 6.782 154.721 6.70734 155.355 6.70734H156.979C157.614 6.70734 158.118 6.782 158.491 6.93134C158.865 7.08067 159.107 7.30467 159.219 7.60334L172.491 44.4513C172.566 44.6007 172.603 44.7313 172.603 44.8433C172.641 44.9553 172.659 45.0673 172.659 45.1793C172.659 45.4407 172.473 45.6647 172.099 45.8513C171.726 46.038 171.11 46.1313 170.251 46.1313H169.803C169.243 46.1313 168.758 46.0753 168.347 45.9633C167.937 45.814 167.675 45.5713 167.563 45.2353L156.979 15.1073C156.83 14.5847 156.662 14.0433 156.475 13.4833C156.326 12.9233 156.214 12.382 156.139 11.8593H156.027C155.915 12.382 155.803 12.9233 155.691 13.4833C155.579 14.0433 155.43 14.5847 155.243 15.1073L144.603 45.2353C144.491 45.5713 144.23 45.814 143.819 45.9633C143.409 46.0753 142.923 46.1313 142.363 46.1313H142.083ZM146.003 35.9393V31.7953H166.107V35.9393H146.003Z" fill="white"/>
<path d="M126.669 46.1313C125.922 46.1313 125.381 46.0193 125.045 45.7953C124.709 45.5713 124.541 45.2727 124.541 44.8993V11.0753H113.789C113.08 11.0753 112.725 10.5153 112.725 9.39534V8.49934C112.725 7.37934 113.08 6.81934 113.789 6.81934H140.109C140.856 6.81934 141.229 7.37934 141.229 8.49934V9.39534C141.229 10.5153 140.856 11.0753 140.109 11.0753H129.581V44.8993C129.581 45.2727 129.413 45.5713 129.077 45.7953C128.741 46.0193 128.2 46.1313 127.453 46.1313H126.669Z" fill="white"/>
<path d="M103.474 46.1313C102.652 46.1313 102.055 46.0193 101.682 45.7953C101.346 45.5713 101.178 45.2727 101.178 44.8993V7.93934C101.178 7.52867 101.346 7.23 101.682 7.04334C102.055 6.81934 102.652 6.70734 103.474 6.70734H103.922C104.78 6.70734 105.378 6.81934 105.714 7.04334C106.05 7.23 106.218 7.52867 106.218 7.93934V44.8993C106.218 45.2727 106.05 45.5713 105.714 45.7953C105.378 46.0193 104.78 46.1313 103.922 46.1313H103.474Z" fill="white"/>
<path d="M80.0753 46.1313C79.3286 46.1313 78.7873 46.0193 78.4513 45.7953C78.1153 45.5713 77.9473 45.2727 77.9473 44.8993V11.0753H67.1953C66.486 11.0753 66.1313 10.5153 66.1313 9.39534V8.49934C66.1313 7.37934 66.486 6.81934 67.1953 6.81934H93.5153C94.262 6.81934 94.6353 7.37934 94.6353 8.49934V9.39534C94.6353 10.5153 94.262 11.0753 93.5153 11.0753H82.9873V44.8993C82.9873 45.2727 82.8193 45.5713 82.4833 45.7953C82.1473 46.0193 81.606 46.1313 80.8593 46.1313H80.0753Z" fill="white"/>
<path d="M42.4613 26.0193C42.7169 29.57 41.5784 33.0804 39.2876 35.8052C36.9967 38.5299 33.734 40.2544 30.1922 40.6123C26.6504 40.9703 23.1086 39.9335 20.3189 37.7223C17.5291 35.511 15.7113 32.2993 15.2513 28.7693C14.7553 25.1489 15.7145 21.4794 17.9187 18.5648C20.123 15.6501 23.3926 13.728 27.0113 13.2193C27.3913 13.1593 27.7813 13.2193 28.1713 13.1393L28.3313 13.2993C28.9113 15.5293 29.2113 17.8193 30.5913 19.8093C31.7176 21.5112 33.2288 22.924 35.0026 23.9334C36.7764 24.9427 38.7629 25.5203 40.8013 25.6193C41.3844 25.5537 41.9721 25.6953 42.4613 26.0193Z" fill="white"/>
<path d="M28.1713 13.1393C28.3808 12.7579 28.4713 12.3226 28.4313 11.8893C28.5787 9.01929 29.7453 6.29603 31.7213 4.20933C33.639 1.98915 36.3035 0.54838 39.2113 0.159327C41.0354 -0.135937 42.9024 -0.0197958 44.6758 0.499257C46.4493 1.01831 48.0843 1.92715 49.4613 3.15933C51.4798 4.84071 52.9178 7.11486 53.5713 9.65933C54.0557 11.4517 54.1468 13.3277 53.8384 15.1586C53.53 16.9895 52.8295 18.7321 51.7847 20.267C50.7399 21.8019 49.3756 23.0927 47.7854 24.0511C46.1951 25.0094 44.4165 25.6126 42.5713 25.8193C42.0713 25.5193 42.1413 24.9793 42.0513 24.5293C40.9313 18.2893 35.5613 13.5293 29.4413 13.5893C29.0032 13.6319 28.5641 13.5186 28.2013 13.2693L28.1713 13.1393Z" fill="#00C2D4"/>
<path d="M10.8013 37.9193C11.7355 37.8881 12.6664 38.0468 13.5375 38.3857C14.4086 38.7247 15.202 39.2368 15.8694 39.8912C16.5369 40.5456 17.0647 41.3286 17.4208 42.1929C17.7769 43.0571 17.954 43.9847 17.9413 44.9193C17.8913 46.7797 17.1326 48.5508 15.8204 49.8705C14.5081 51.1902 12.7414 51.9588 10.8813 52.0193C8.99166 51.9719 7.19157 51.2041 5.84941 49.8731C4.50724 48.5421 3.72448 46.7485 3.6613 44.8593C3.7413 41.0993 6.8813 37.6493 10.8013 37.9193Z" fill="#00C2D3"/>
<path d="M25.3813 53.3193C26.9156 53.0892 28.4612 52.9424 30.0113 52.8793C35.3105 52.3748 40.3116 50.1966 44.2902 46.6602C48.2689 43.1238 51.0187 38.4128 52.1413 33.2093C52.547 31.1656 52.7148 29.0817 52.6413 26.9993C52.5665 26.3165 52.7443 25.6299 53.1413 25.0693C53.4714 24.6338 53.928 24.311 54.4487 24.1451C54.9693 23.9792 55.5285 23.9783 56.0497 24.1426C56.5709 24.3068 57.0285 24.6281 57.36 25.0626C57.6915 25.497 57.8805 26.0233 57.9013 26.5693C57.8919 28.3163 57.6703 30.0558 57.2413 31.7493C56.1207 36.9931 53.5053 41.8001 49.7113 45.5893C46.0167 49.3448 41.32 51.9586 36.1813 53.1193C33.4819 53.7196 30.7087 53.9184 27.9513 53.7093C27.0913 53.6493 26.2413 53.4593 25.3813 53.3193Z" fill="white"/>
<path d="M25.3813 0.719322C16.1013 2.95932 9.6213 8.16932 6.2313 16.9293C4.57047 21.3556 4.2539 26.1738 5.3213 30.7793C5.59861 31.4542 5.65804 32.199 5.4913 32.9093C5.35009 33.45 5.03648 33.93 4.59798 34.2765C4.15949 34.6229 3.62001 34.817 3.0613 34.8293C2.48055 34.8893 1.89748 34.7399 1.41713 34.408C0.93678 34.0762 0.590721 33.5837 0.441297 33.0193C0.101437 31.7418 -0.0435306 30.4202 0.011297 29.0993C-0.208703 16.4593 7.3313 5.52932 19.0913 1.63932C21.0767 0.806511 23.2406 0.490007 25.3813 0.719322Z" fill="white"/>
<path d="M28.1713 13.2293C30.2128 13.0044 32.2783 13.2865 34.1848 14.0505C36.0913 14.8145 37.78 16.0369 39.1013 17.6093C41.186 19.835 42.4061 22.7328 42.5413 25.7793C42.5358 25.8557 42.508 25.9287 42.4613 25.9893C40.2994 26.084 38.142 25.7193 36.1313 24.9193C34.1162 24.0837 32.3522 22.74 31.0113 21.0193C29.1952 18.8275 28.192 16.0757 28.1713 13.2293Z" fill="#A0DEE0"/>
</svg>
