<svg width="301" height="54" viewBox="0 0 301 54" fill="none" xmlns="http://www.w3.org/2000/svg">
<path d="M42.5602 26.019C42.7998 29.5669 41.6525 33.0692 39.3602 35.7876C37.0678 38.5061 33.8096 40.2284 30.2723 40.5915C26.7349 40.9546 23.1947 39.93 20.398 37.7339C17.6013 35.5378 15.7664 32.3416 15.2802 28.819C14.7928 25.1916 15.7599 21.5185 17.9706 18.6015C20.1813 15.6846 23.4561 13.7604 27.0802 13.249C27.4654 13.2055 27.8526 13.1821 28.2402 13.179L28.4002 13.329C28.9902 15.569 29.2902 17.869 30.6702 19.869C31.8048 21.5699 33.322 22.9813 35.1002 23.9902C36.8784 24.9992 38.8683 25.5775 40.9102 25.679C41.4802 25.729 42.0802 25.619 42.5602 26.019Z" fill="#132426"/>
<path d="M28.2402 13.179C28.4547 12.7958 28.5455 12.3558 28.5002 11.919C28.6561 9.04309 29.8251 6.31523 31.8002 4.21901C33.7213 1.99085 36.3939 0.546006 39.3102 0.159009C41.139 -0.135861 43.0105 -0.0196076 44.7887 0.499323C46.5669 1.01825 48.2071 1.92682 49.5902 3.15901C51.6099 4.85188 53.0474 7.13584 53.7002 9.68901C54.1861 11.4833 54.2785 13.3613 53.9711 15.1946C53.6636 17.0279 52.9636 18.773 51.9189 20.3106C50.8742 21.8481 49.5096 23.1418 47.9185 24.1029C46.3274 25.064 44.5473 25.6698 42.7002 25.879C42.2002 25.579 42.2602 25.049 42.1802 24.589C41.6827 21.5693 40.1467 18.8179 37.8372 16.8097C35.5278 14.8015 32.5898 13.6624 29.5302 13.589C29.0923 13.6299 28.6537 13.5167 28.2902 13.269L28.2402 13.179Z" fill="#3FC2D3"/>
<path d="M10.8302 38.019C11.767 37.9851 12.701 38.1417 13.5755 38.4792C14.4501 38.8166 15.2471 39.328 15.9183 39.9824C16.5895 40.6368 17.121 41.4206 17.4806 42.2863C17.8401 43.152 18.0203 44.0816 18.0102 45.019C17.978 46.8953 17.2264 48.6875 15.9107 50.0255C14.595 51.3636 12.8157 52.1452 10.9402 52.209C9.03915 52.1666 7.22644 51.3979 5.87441 50.0608C4.52239 48.7236 3.73367 46.9195 3.67024 45.019C3.75024 41.209 6.90024 37.749 10.8302 38.019Z" fill="#3EC2D2"/>
<path d="M25.4502 53.459C26.99 53.2188 28.5428 53.0718 30.1002 53.019C35.4097 52.509 40.4193 50.3234 44.4047 46.7785C48.3901 43.2335 51.1447 38.5128 52.2702 33.299C52.6806 31.2491 52.8484 29.1581 52.7702 27.069C52.6991 26.3864 52.8766 25.7012 53.2702 25.139C53.6052 24.7165 54.0607 24.4058 54.5762 24.248C55.0918 24.0902 55.6431 24.0928 56.1572 24.2555C56.6712 24.4182 57.1237 24.7332 57.4546 25.1589C57.7855 25.5845 57.9793 26.1007 58.0102 26.639C57.9965 28.389 57.775 30.1312 57.3502 31.829C56.2225 37.0861 53.6009 41.9058 49.8002 45.709C46.0958 49.4766 41.3848 52.0977 36.2302 53.259C33.5244 53.8614 30.7438 54.0569 27.9802 53.839C27.1602 53.779 26.3002 53.589 25.4502 53.459Z" fill="#132426"/>
<path d="M25.4402 0.72901C16.1402 3.01901 9.65024 8.18901 6.24024 17.019C4.57789 21.4588 4.26136 26.2902 5.33024 30.909C5.60227 31.578 5.66503 32.3137 5.51024 33.019C5.36196 33.556 5.04449 34.0309 4.60494 34.3731C4.16539 34.7154 3.6272 34.9068 3.07024 34.919C2.48283 34.9775 1.89397 34.8228 1.41114 34.4832C0.928316 34.1436 0.583716 33.6416 0.440242 33.069C0.103378 31.8011 -0.041565 30.4899 0.0102422 29.179C-0.209758 16.509 7.35024 5.54901 19.1402 1.63901C21.1286 0.804506 23.297 0.491288 25.4402 0.72901Z" fill="#132426"/>
<path d="M28.2402 13.259C30.2935 13.0288 32.3718 13.309 34.2907 14.0748C36.2096 14.8406 37.9097 16.0684 39.2402 17.649C41.3285 19.8813 42.5518 22.7854 42.6902 25.839C42.686 25.9204 42.6543 25.998 42.6002 26.059C40.4274 26.1638 38.2569 25.8094 36.2302 25.019C34.2072 24.1972 32.435 22.8594 31.0902 21.139C29.2502 18.9252 28.242 16.1377 28.2402 13.259Z" fill="#058D9E"/>
<path d="M279.616 47.019C278.458 47.019 277.88 46.459 277.88 45.339V9.49902C277.88 8.37902 278.458 7.81902 279.616 7.81902H299.104C299.85 7.81902 300.224 8.37902 300.224 9.49902V10.395C300.224 11.515 299.85 12.075 299.104 12.075H282.92V24.843H297.424C298.17 24.843 298.544 25.403 298.544 26.523V27.419C298.544 28.539 298.17 29.099 297.424 29.099H282.92V42.763H299.16C299.906 42.763 300.28 43.323 300.28 44.443V45.339C300.28 46.459 299.906 47.019 299.16 47.019H279.616Z" fill="#00ADC6"/>
<path d="M256.566 47.131C255.745 47.131 255.148 47.019 254.774 46.795C254.438 46.571 254.27 46.2724 254.27 45.899V27.475L242.622 9.66701C242.473 9.48035 242.361 9.31235 242.286 9.16301C242.212 8.97635 242.174 8.80835 242.174 8.65901C242.174 8.36035 242.361 8.13635 242.734 7.98702C243.108 7.80035 243.761 7.70702 244.694 7.70702H245.31C245.908 7.70702 246.393 7.76302 246.766 7.87501C247.177 7.98702 247.494 8.21102 247.718 8.54702L257.966 24.507H255.894L266.254 8.49102C266.441 8.19235 266.758 7.98702 267.206 7.87501C267.692 7.76302 268.214 7.70702 268.774 7.70702H269.222C270.044 7.70702 270.622 7.80035 270.958 7.98702C271.294 8.13635 271.462 8.36035 271.462 8.65901C271.462 8.80835 271.425 8.97635 271.35 9.16301C271.276 9.31235 271.164 9.48035 271.014 9.66701L259.31 27.643V45.899C259.31 46.2724 259.142 46.571 258.806 46.795C258.47 47.019 257.873 47.131 257.014 47.131H256.566Z" fill="#00ADC6"/>
<path d="M217.764 47.019C216.607 47.019 216.028 46.459 216.028 45.339V9.49902C216.028 8.37902 216.607 7.81902 217.764 7.81902H237.252C237.999 7.81902 238.372 8.37902 238.372 9.49902V10.395C238.372 11.515 237.999 12.075 237.252 12.075H221.068V24.843H235.572C236.319 24.843 236.692 25.403 236.692 26.523V27.419C236.692 28.539 236.319 29.099 235.572 29.099H221.068V42.763H237.308C238.055 42.763 238.428 43.323 238.428 44.443V45.339C238.428 46.459 238.055 47.019 237.308 47.019H217.764Z" fill="#00ADC6"/>
<path d="M178.074 47.131C177.253 47.131 176.655 47.019 176.282 46.795C175.946 46.571 175.778 46.2724 175.778 45.899V8.93902C175.778 8.52835 175.946 8.22968 176.282 8.04302C176.655 7.81902 177.253 7.70702 178.074 7.70702H179.474C179.885 7.70702 180.221 7.74435 180.482 7.81901C180.781 7.89368 181.042 8.00568 181.266 8.15502C181.49 8.30435 181.677 8.50968 181.826 8.77102L198.962 35.315C199.335 35.875 199.672 36.435 199.97 36.995C200.269 37.5177 200.549 38.0777 200.81 38.675L201.034 38.619C200.997 37.9843 200.96 37.4057 200.922 36.883C200.922 36.323 200.922 35.6323 200.922 34.811V8.93902C200.922 8.52835 201.09 8.22968 201.426 8.04302C201.8 7.81902 202.397 7.70702 203.218 7.70702H203.666C204.525 7.70702 205.122 7.81902 205.458 8.04302C205.794 8.22968 205.962 8.52835 205.962 8.93902V45.899C205.962 46.2724 205.794 46.571 205.458 46.795C205.122 47.019 204.525 47.131 203.666 47.131H202.322C201.986 47.131 201.688 47.0937 201.426 47.019C201.165 46.9817 200.941 46.907 200.754 46.795C200.605 46.6457 200.474 46.4963 200.362 46.347L182.778 19.131C182.405 18.571 182.069 18.0297 181.77 17.507C181.509 16.947 181.229 16.3683 180.93 15.771L180.706 15.827C180.781 16.4617 180.818 17.059 180.818 17.619C180.818 18.1417 180.818 18.8137 180.818 19.635V45.899C180.818 46.2724 180.65 46.571 180.314 46.795C179.978 47.019 179.381 47.131 178.522 47.131H178.074Z" fill="black"/>
<path d="M139.082 47.131C138.261 47.131 137.645 47.0564 137.234 46.907C136.861 46.7204 136.674 46.4777 136.674 46.179C136.674 46.067 136.693 45.955 136.73 45.843C136.768 45.6937 136.805 45.5443 136.842 45.395L150.114 8.60301C150.226 8.30435 150.469 8.08035 150.842 7.93102C151.216 7.78168 151.72 7.70702 152.354 7.70702H153.978C154.613 7.70702 155.117 7.78168 155.49 7.93102C155.864 8.08035 156.106 8.30435 156.218 8.60301L169.49 45.451C169.565 45.6003 169.602 45.731 169.602 45.843C169.64 45.955 169.658 46.067 169.658 46.179C169.658 46.4403 169.472 46.6644 169.098 46.851C168.725 47.0377 168.109 47.131 167.25 47.131H166.802C166.242 47.131 165.757 47.075 165.346 46.963C164.936 46.8137 164.674 46.571 164.562 46.235L153.978 16.107C153.829 15.5843 153.661 15.043 153.474 14.483C153.325 13.923 153.213 13.3817 153.138 12.859H153.026C152.914 13.3817 152.802 13.923 152.69 14.483C152.578 15.043 152.429 15.5843 152.242 16.107L141.602 46.235C141.49 46.571 141.229 46.8137 140.818 46.963C140.408 47.075 139.922 47.131 139.362 47.131H139.082ZM143.002 36.939V32.795H163.106V36.939H143.002Z" fill="black"/>
<path d="M123.668 47.131C122.921 47.131 122.38 47.019 122.044 46.795C121.708 46.571 121.54 46.2724 121.54 45.899V12.075H110.788C110.079 12.075 109.724 11.515 109.724 10.395V9.49902C109.724 8.37902 110.079 7.81902 110.788 7.81902H137.108C137.855 7.81902 138.228 8.37902 138.228 9.49902V10.395C138.228 11.515 137.855 12.075 137.108 12.075H126.58V45.899C126.58 46.2724 126.412 46.571 126.076 46.795C125.74 47.019 125.199 47.131 124.452 47.131H123.668Z" fill="black"/>
<path d="M100.473 47.131C99.6513 47.131 99.054 47.019 98.6806 46.795C98.3446 46.571 98.1766 46.2724 98.1766 45.899V8.93902C98.1766 8.52835 98.3446 8.22968 98.6806 8.04302C99.054 7.81902 99.6513 7.70702 100.473 7.70702H100.921C101.779 7.70702 102.377 7.81902 102.713 8.04302C103.049 8.22968 103.217 8.52835 103.217 8.93902V45.899C103.217 46.2724 103.049 46.571 102.713 46.795C102.377 47.019 101.779 47.131 100.921 47.131H100.473Z" fill="black"/>
<path d="M77.0742 47.131C76.3276 47.131 75.7862 47.019 75.4502 46.795C75.1142 46.571 74.9462 46.2724 74.9462 45.899V12.075H64.1942C63.4849 12.075 63.1302 11.515 63.1302 10.395V9.49902C63.1302 8.37902 63.4849 7.81902 64.1942 7.81902H90.5142C91.2609 7.81902 91.6342 8.37902 91.6342 9.49902V10.395C91.6342 11.515 91.2609 12.075 90.5142 12.075H79.9862V45.899C79.9862 46.2724 79.8182 46.571 79.4822 46.795C79.1462 47.019 78.6049 47.131 77.8582 47.131H77.0742Z" fill="black"/>
</svg>
