<svg id="layer" xmlns="http://www.w3.org/2000/svg" width="624" height="127.21" viewBox="0 0 624 127.21"><title>unitedhealthcare-vector-logo</title><path d="M99,66.3h20.3V69c-5.5.3-6,1.3-6,5.7v36.5c0,7.9,4.5,11.9,10.8,11.9,7.2,0,11.6-4.6,11.6-12.1V75.5c0-4.4-1.3-6.3-6.5-6.6V66.2h16.2v2.7c-5.2.3-6.5,2.2-6.5,6.6v33.6c0,10.5-4.6,16.7-16.4,16.7s-17.4-6.4-17.4-17V74.7c0-4.4-.5-5.4-6-5.7V66.3Z" transform="translate(-15 -13.1)" fill="#060e9f"/><path d="M144.2,124.5v-2.7c4.1-.2,5.4-1.7,5.4-4.2V91.1c0-3.7-1-4.3-5.6-4.4V84l12.4-.6v8.2h.2c2.3-4.7,5.6-8.7,11.4-8.7,7,0,10.3,4.6,10.3,12v22.5c0,2.9,1.2,4.1,5.2,4.2v2.7H171V94.1c0-5.6-2.1-7.5-5-7.5-4.5,0-9.1,5.9-9.1,14.2v16.4c0,2.5,1.4,4.1,5.4,4.2v2.7H144.2Z" transform="translate(-15 -13.1)" fill="#060e9f"/><path d="M185.4,124.5v-2.7c4.1-.2,5.4-1.7,5.4-4.2v-27c0-3.6-1-4.2-5.4-4.4V83.5l12.7-.5v34.6c0,2.5,1.4,4.1,5.4,4.2v2.7Zm12.7-53.6c0,3.2-1.8,5.4-4.3,5.4s-4.3-2.2-4.3-5.4,1.8-5.4,4.3-5.4,4.3,2.2,4.3,5.4" transform="translate(-15 -13.1)" fill="#060e9f"/><path d="M216.6,68.4V84h10.2v3.2H216.6v29.9c0,3.7,1.3,5.3,3.6,5.3,2.8,0,4.9-1.8,4.9-10.8v-2.4h2.7v4c0,8.6-3.1,12.4-9.5,12.4-5.6,0-9-3.5-9-10.3v-28H204V84.8c6.1-2.5,9.3-5.4,9.8-16.3h2.8Z" transform="translate(-15 -13.1)" fill="#060e9f"/><path d="M239.2,100.8c0-10.9,3.2-15.1,8-15.1,4.5,0,7,4.2,7,15.1Zm23.4,3.2c0-12.2-5.9-21-15.3-21-9.6,0-16.3,8.8-16.3,21.2,0,10.6,7,21.3,17.4,21.3,9.5,0,13.6-7.4,14.4-14.9l-2.7-.5c-.8,5.8-3.5,12.2-10.8,12.2-5.7,0-10-6.5-10-18.3Z" transform="translate(-15 -13.1)" fill="#060e9f"/><path d="M275.1,104.5c0-13.1,3-18.3,7.7-18.3,5.2,0,8.3,6.3,8.3,18.3,0,14.6-4.5,18.3-9,18.3-4.2,0-7-5.2-7-18.3M285.6,69c4.4.2,5.5.8,5.5,4.4V88.6l-.2.1c-1.7-3.3-4.6-5.7-8.5-5.7-8.9,0-15.6,9.1-15.6,21.4,0,13.3,7,21.1,14.6,21.1,5.2,0,8-3,9.8-7h.2v6l11.9-.5v-2.7c-3.4.1-4.9-1.3-4.9-5.9V65.7l-12.8.5Z" transform="translate(-15 -13.1)" fill="#060e9f"/><path d="M305.4,124.5v-2.7c5.1-.3,5.9-1.4,5.9-5.8V74.7c0-4.4-.9-5.4-5.9-5.7V66.3h20.5V69c-5.2.3-6.3,1.3-6.3,5.7V92.3h18.3V74.7c0-4.4-1-5.4-6.3-5.7V66.3h20.5V69c-5.1.3-5.9,1.3-5.9,5.7V116c0,4.4.9,5.4,5.9,5.8v2.7H331.6v-2.7c5.2-.3,6.3-1.4,6.3-5.8V95.5H319.6V116c0,4.4,1,5.4,6.3,5.8v2.7Z" transform="translate(-15 -13.1)" fill="#060e9f"/><path d="M361.7,100.8c0-10.9,3.2-15.1,8-15.1,4.5,0,7,4.2,7,15.1Zm23.4,3.2c0-12.2-5.9-21-15.3-21-9.6,0-16.4,8.8-16.4,21.2,0,10.6,6.9,21.3,17.5,21.3,9.5,0,13.6-7.4,14.4-14.9l-2.7-.5c-.8,5.8-3.5,12.2-10.8,12.2-5.7,0-10-6.5-10-18.3Z" transform="translate(-15 -13.1)" fill="#060e9f"/><path d="M406.9,107.7c0,9.6-3.9,14.7-8.2,14.7-2.6,0-4.7-2.2-4.7-6.7,0-7.2,6.1-10.4,12.9-12.8v4.8Zm11.5,5.1c-.2,6.1-.8,8-2.5,8-1.2,0-1.8-1.1-1.8-3.6V93.6c0-6.3-3.6-10.7-13.1-10.7-7.4,0-12.8,4.6-12.8,10.3,0,3.4,1.7,5.1,4.1,5.1s4.2-1.9,4.2-4.9c0-2.5-.8-4.5-3.6-4.7a9,9,0,0,1,7.2-3.1c4.5,0,6.7,2.1,6.7,7v6.9c-7.3,2.7-20.6,6.7-20.6,16.4,0,5.6,3.8,9.6,10.3,9.6,5.9,0,8.5-2.8,10.5-6.6h.2c.5,4.6,2.8,6.6,6.9,6.6,5.2,0,7-3.8,7-12.7Z" transform="translate(-15 -13.1)" fill="#060e9f"/><path d="M420,124.5v-2.7c4.1-.2,5.4-1.7,5.4-4.2V73.5c0-2.9-1.4-4.4-5.6-4.6V66.2l12.9-.5v51.8c0,2.5,1.4,4.1,5.4,4.2v2.7H420Z" transform="translate(-15 -13.1)" fill="#060e9f"/><path d="M450.4,68.4V84h10.2v3.2H450.4v29.9c0,3.7,1.3,5.3,3.6,5.3,2.8,0,4.9-1.8,4.9-10.8v-2.4h2.7v4c0,8.6-3.1,12.4-9.5,12.4-5.6,0-9-3.5-9-10.3v-28h-5.3V84.8c6.1-2.5,9.3-5.4,9.8-16.3h2.8Z" transform="translate(-15 -13.1)" fill="#060e9f"/><path d="M461.3,124.5v-2.7c4.1-.2,5.4-1.7,5.4-4.2V73.4c0-3.6-1-4.2-5.6-4.4V66.4l12.9-.5V90.8h.2c1.7-3.7,4.9-7.6,10.6-7.6,6.5,0,10.6,4.6,10.6,12v22.5c0,2.5,1.4,4.1,5.3,4.2v2.7H488.2V94.9c0-5.9-2.1-7.9-5.2-7.9-4.2,0-8.9,5.6-8.9,13.7v16.9c0,2.5,1.4,4.1,5.4,4.2v2.7Z" transform="translate(-15 -13.1)" fill="#060e9f"/><path d="M532.1,110.5c-.8,8-4.5,15.2-13.8,15.2-8.6,0-16.5-7.7-16.5-20.2,0-10.6,7.3-22.5,17.6-22.5,7.2,0,11.8,4.5,11.8,11.1,0,4.1-1.3,6.3-4.3,6.3-2.4,0-4-2-4-5.1,0-3.6,1.3-5.1,3.5-5.1.6,0,.9.3,1.3.3l.2-.2a7.42,7.42,0,0,0-7.1-4.7c-6.3,0-10.6,6.4-10.6,18.4,0,14.3,4.4,18.4,9.4,18.4,6.9,0,9.1-6.3,10-12.3Z" transform="translate(-15 -13.1)" fill="#060e9f"/><path d="M555.8,107.7c0,9.6-3.9,14.8-8.3,14.8-2.7,0-4.7-2.2-4.7-6.7,0-7.3,6.1-10.5,13-12.9Zm11.5,5.3c-.2,6.2-.8,8.1-2.5,8.1-1.2,0-1.8-1.1-1.8-3.6V93.7c0-6.4-3.6-10.7-13.2-10.7-7.4,0-12.8,4.6-12.8,10.4,0,3.4,1.7,5.1,4.1,5.1s4.2-1.9,4.2-5c0-2.5-.8-4.5-3.5-4.8a9,9,0,0,1,7.2-3.1c4.5,0,6.8,2.1,6.8,7v7c-7.3,2.7-20.8,6.7-20.8,16.4,0,5.6,3.8,9.6,10.4,9.6,6,0,8.5-2.8,10.6-6.7h.2c.5,4.6,2.8,6.7,6.9,6.7,5.2,0,7-3.8,7-12.8Z" transform="translate(-15 -13.1)" fill="#060e9f"/><path d="M571,124.6v-2.7c3.6-.2,4.9-1.7,4.9-4.3V94.4c0-5.8-1-7.7-5.3-7.8V83.9l11.7-.5v9.8h.2c1.1-4.4,4.1-10.3,9.2-10.3,3.1,0,6.2,2.6,6.2,7.4,0,3.7-1.8,5.5-4,5.5-1.9,0-3.8-1.2-3.8-5,0-2.1,1.2-4.2,3.6-4.2a2.46,2.46,0,0,0-2.2-1c-5.7.1-8.3,12.6-8.3,20v12.1c0,2.6,1.3,4.1,7.1,4.3v2.7H571Z" transform="translate(-15 -13.1)" fill="#060e9f"/><path d="M606.2,100.9c0-11,3.2-15.3,8.1-15.3,4.5,0,7.1,4.3,7.1,15.3Zm23.4,3.2c0-12.4-5.9-21.2-15.3-21.2-9.6,0-16.3,8.9-16.3,21.5,0,10.6,6.9,21.3,17.5,21.3,9.5,0,13.6-7.4,14.4-14.9l-2.7-.5c-.8,5.8-3.5,12.2-10.9,12.2-5.7,0-10-6.4-10-18.3h23.3Z" transform="translate(-15 -13.1)" fill="#060e9f"/><path d="M632.7,73.8a5.4,5.4,0,1,1-5.4,5.4,5.38,5.38,0,0,1,5.4-5.4m0-.9a6.35,6.35,0,1,0,6.3,6.3,6.36,6.36,0,0,0-6.3-6.3m-1.2,6.7h1.2a.93.93,0,0,1,1.1.8,7.38,7.38,0,0,0,.3,2.4h1.2a7.39,7.39,0,0,1-.3-1.9c0-1.5-.4-1.8-1.3-1.8h0a1.81,1.81,0,0,0,1.6-1.7,1.79,1.79,0,0,0-2-1.8h-2.9v7.3h1.2V79.6Zm0-3.2H633a1,1,0,0,1,1.1,1.1,1.07,1.07,0,0,1-1.1,1.2h-1.5Z" transform="translate(-15 -13.1)" fill="#060e9f"/><path d="M25.3,124.5h1.9a.37.37,0,0,0,.3-.1h.1a.37.37,0,0,0,.3-.1.1.1,0,0,0,.1-.1c.1,0,.2-.1.3-.1a.1.1,0,0,0,.1-.1c.1,0,.2-.1.3-.1s.1,0,.1-.1.2-.1.3-.1a.1.1,0,0,0,.1-.1c.1-.1.2-.1.3-.2a.1.1,0,0,0,.1-.1c.1,0,.2-.1.3-.2l.1-.1c.1-.1.2-.1.3-.2l.1-.1c.1-.1.2-.1.3-.2a.35.35,0,0,1,.2-.1l.3-.3a.1.1,0,0,0,.1-.1l.3-.3.2-.2.3-.3.2-.2.3-.3.2-.2.3-.3.2-.2a1.38,1.38,0,0,0,.3-.4c.1-.1.1-.2.2-.2s.2-.3.3-.4.1-.2.2-.3.2-.3.3-.4.1-.2.2-.3.2-.3.3-.4.1-.2.2-.3.2-.3.3-.5.1-.2.2-.4.2-.3.3-.5.1-.3.2-.4.2-.3.2-.5.1-.3.2-.5.1-.3.2-.5.1-.3.2-.5.1-.4.2-.5.1-.3.2-.5a1.42,1.42,0,0,0,.2-.6,1.85,1.85,0,0,0,.2-.7c0-.2.1-.3.1-.4a5.64,5.64,0,0,1,.4-1.2c1.7-6.1,2.1-18.4,2.1-26.5V30.9L15,44.5V98.3c0,20.5,3.7,25.4,8.3,26.3h-.1Z" transform="translate(-15 -13.1)" fill="#060e9f"/><path d="M31.7,130.1c10.1-1.3,15.9-12.5,17.3-18,2.2-7.6,2.7-17,2.7-27.6V25L40.9,30.8l5.7,1.3V79.8c0,12.3-.3,23.1-2.3,30.2-2.8,10.1-7.9,14.2-11.5,15.5l-9.1-1h-.1c1,2.9,3.2,5.1,5.8,5.5Z" transform="translate(-15 -13.1)" fill="#778692"/><path d="M29.4,129.9a8.32,8.32,0,0,0,5.7,5.1l2.3.2c10.5-.1,17.4-10.3,19.8-15.7,3.6-8,5.3-19.3,5.3-35.5V19.1L51.6,25l5.8,1.3V81.7c0,13.8-.6,25.6-3.9,34.3-2.9,7.5-8.2,13.4-14.7,15l-7.1-.8Z" transform="translate(-15 -13.1)" fill="#778692"/><path d="M62.5,19.1l5.9,1.3V81.6c0,18.8-1.9,31.6-6.1,40.3-3.9,8.1-10.5,13.3-16.8,14.4l-8.1-1-2.3-.2a11,11,0,0,0,9.1,5.2c5.1.2,9.2-2,13.1-4.6,12.4-8.6,16.3-27.7,16.3-53.6v-69Z" transform="translate(-15 -13.1)" fill="#778692"/></svg>